<?xml version="1.0" standalone="no"?>
<!DOCTYPE svg PUBLIC "-//W3C//DTD SVG 20010904//EN"
 "http://www.w3.org/TR/2001/REC-SVG-20010904/DTD/svg10.dtd">
<svg version="1.0" xmlns="http://www.w3.org/2000/svg"
 width="554.000000pt" height="554.000000pt" viewBox="0 0 554.000000 554.000000"
 preserveAspectRatio="xMidYMid meet">
<metadata>
Created by potrace 1.14, written by Peter Selinger 2001-2017
</metadata>
<g transform="translate(0.000000,554.000000) scale(0.100000,-0.100000)"
fill="#000000" stroke="none">
<path d="M2510 5524 c-561 -67 -1016 -250 -1450 -584 -122 -94 -366 -338 -460
-460 -306 -398 -483 -806 -567 -1315 -26 -159 -26 -641 0 -800 84 -509 261
-917 567 -1315 94 -122 338 -366 460 -460 398 -306 806 -483 1315 -567 89 -14
166 -18 400 -18 234 0 311 4 400 18 509 84 917 261 1315 567 122 94 366 338
460 460 306 398 483 806 567 1315 26 159 26 641 0 800 -84 509 -261 917 -567
1315 -94 122 -338 366 -460 460 -390 301 -792 476 -1284 561 -98 17 -171 22
-391 24 -148 2 -286 1 -305 -1z m420 -394 c632 -47 1193 -325 1610 -798 71
-80 91 -112 83 -126 -4 -5 -2 -6 4 -3 15 9 57 -39 48 -54 -5 -7 -4 -10 3 -5
11 6 38 -31 34 -46 -1 -5 2 -8 8 -8 5 0 10 -5 10 -11 0 -5 -4 -8 -9 -5 -5 4
-7 -3 -4 -15 4 -16 8 -17 14 -7 7 10 9 10 10 -2 1 -8 1 -18 0 -22 0 -5 4 -8
10 -8 5 0 7 -5 3 -12 -5 -7 -2 -9 9 -5 10 4 21 -3 31 -18 23 -34 19 -45 -4
-15 -16 20 -19 21 -13 5 4 -11 -19 10 -50 48 -33 38 -55 72 -51 79 4 6 3 8 -4
4 -6 -3 -51 33 -102 84 -50 49 -95 90 -100 90 -4 0 -10 3 -12 8 -7 16 -156
131 -248 192 -109 71 -316 175 -440 220 -119 44 -292 87 -423 105 -145 21
-427 21 -570 1 -670 -95 -1240 -500 -1440 -1021 -52 -135 -71 -238 -71 -395 1
-156 22 -267 78 -407 19 -47 32 -93 29 -102 -4 -12 -3 -13 5 -3 7 11 10 10 16
-3 3 -9 3 -22 -1 -27 -3 -6 -2 -8 4 -5 6 4 18 -11 28 -33 10 -22 24 -45 32
-51 7 -6 13 -21 13 -32 0 -11 3 -17 7 -14 5 6 45 -48 46 -63 0 -3 12 -14 25
-24 22 -17 24 -25 20 -83 -4 -58 -2 -63 17 -63 12 0 28 -12 38 -29 17 -28 16
-29 -3 -24 -11 3 -20 14 -20 24 0 12 -7 19 -19 19 -11 0 -27 7 -36 17 -14 14
-18 14 -27 2 -7 -11 -11 -11 -15 -1 -7 17 -23 15 -23 -4 0 -10 -5 -14 -15 -10
-8 3 -22 9 -30 12 -8 3 -15 1 -15 -6 0 -6 5 -8 10 -5 6 3 10 2 10 -4 0 -22
-22 -22 -41 1 -19 21 -22 21 -33 6 -10 -14 -18 -11 -66 33 -30 27 -59 49 -63
49 -10 0 18 30 29 30 3 0 0 -8 -7 -17 -11 -16 -11 -16 1 -5 16 14 22 62 8 62
-5 0 -14 -11 -20 -25 -6 -14 -15 -25 -20 -25 -9 0 -76 68 -124 126 -23 28 -32
48 -28 60 4 14 3 15 -3 6 -8 -10 -16 -5 -37 22 -15 20 -25 36 -22 36 3 0 -6
12 -20 27 -13 14 -22 28 -20 31 3 2 -4 14 -15 25 -11 12 -17 27 -14 35 3 8 0
10 -7 6 -8 -5 -9 -1 -4 12 4 10 4 15 0 11 -9 -8 -59 90 -99 193 -98 253 -113
563 -38 805 32 102 93 226 149 301 95 127 316 331 484 445 340 232 740 375
1147 408 144 12 203 12 353 1z m1048 -1131 c112 -12 247 -40 335 -70 94 -32
248 -109 240 -122 -3 -6 -1 -7 6 -3 9 6 45 -13 81 -41 2 -2 -2 -9 -10 -14 -13
-9 -13 -10 1 -6 9 3 23 0 30 -6 11 -10 11 -8 0 8 -8 11 0 5 18 -13 17 -18 31
-29 31 -25 0 4 32 -26 70 -65 66 -67 70 -74 55 -89 -12 -11 -15 -26 -12 -47 3
-17 3 -25 0 -18 -12 30 -23 7 -23 -48 0 -33 -4 -60 -10 -60 -5 0 -10 -18 -10
-40 0 -38 -2 -40 -30 -40 -28 0 -30 -2 -30 -40 0 -29 -4 -40 -15 -40 -20 0
-21 -88 -1 -96 8 -3 13 -18 12 -34 0 -16 -2 -27 -4 -25 -2 2 -2 5 0 8 2 2 -3
11 -11 20 -7 10 -10 17 -5 17 5 0 -2 7 -14 16 -19 13 -25 14 -39 2 -9 -7 -14
-8 -10 -2 4 7 0 17 -8 24 -7 6 -11 19 -9 28 5 15 4 15 -6 -1 -6 -9 -8 -22 -5
-27 4 -6 -21 4 -53 22 -33 18 -58 37 -55 42 4 5 1 6 -5 2 -6 -3 -27 3 -47 15
-28 17 -33 24 -23 31 9 7 8 8 -6 4 -11 -4 -62 10 -123 34 -57 22 -110 40 -118
40 -8 0 -15 5 -15 11 0 5 -4 8 -8 5 -4 -2 -39 4 -77 15 -129 35 -239 50 -415
56 -328 10 -579 -48 -813 -188 -82 -49 -246 -206 -299 -286 -28 -43 -37 -50
-48 -40 -12 10 -12 9 -1 -5 10 -14 9 -23 -5 -50 -9 -18 -22 -36 -28 -40 -6 -4
-8 -8 -4 -8 4 0 -4 -30 -18 -67 -30 -82 -29 -76 -39 -138 -4 -27 -12 -55 -16
-61 -5 -6 -8 -24 -7 -40 1 -16 0 -60 -2 -99 l-3 -70 -8 85 c-4 47 -12 96 -18
110 -9 20 -10 14 -4 -30 8 -67 5 -151 -7 -165 -4 -5 -10 -21 -13 -35 -4 -21
-4 -20 -6 8 0 17 4 32 9 32 6 0 9 28 9 68 -1 37 -4 55 -6 40 -4 -25 -8 -28
-45 -28 -29 0 -46 6 -59 21 -18 21 -18 21 -30 1 -10 -17 -15 -18 -26 -7 -16
16 -17 65 -2 65 6 0 8 11 5 28 -4 15 1 63 9 107 9 44 18 94 20 110 7 41 35
127 48 143 5 6 7 12 4 12 -4 0 5 29 18 63 183 488 614 863 1139 991 198 49
390 64 564 45z m847 -77 c-3 -3 -11 0 -18 7 -9 10 -8 11 6 5 10 -3 15 -9 12
-12z m72 -441 c0 -11 -5 -18 -9 -15 -4 3 -5 11 -1 19 7 21 12 19 10 -4z m79
-93 c3 -4 -1 -5 -10 -4 -8 1 -18 5 -22 8 -3 4 1 5 10 4 8 -1 18 -5 22 -8z m18
-86 c3 -5 -1 -9 -9 -9 -8 0 -12 4 -9 9 3 4 7 8 9 8 2 0 6 -4 9 -8z m-1154
-134 c167 -20 400 -79 400 -101 0 -4 4 -6 9 -3 10 7 71 -16 71 -26 0 -5 -12
-6 -27 -3 -26 5 -26 5 -5 -4 31 -14 28 -24 -5 -17 -23 5 -25 4 -10 -4 9 -6 25
-10 35 -9 9 1 24 1 32 0 13 -1 13 -2 0 -11 -23 -15 -2 -12 29 4 19 10 31 12
42 4 11 -8 11 -9 -3 -4 -15 4 -16 1 -7 -21 5 -14 7 -28 4 -31 -2 -3 0 -11 6
-19 9 -9 8 -13 0 -13 -6 0 -11 -13 -11 -30 0 -28 -2 -30 -40 -30 -38 0 -40 -2
-40 -30 0 -28 -2 -30 -40 -30 -22 0 -40 -4 -40 -10 0 -5 -18 -10 -40 -10 -38
0 -40 -2 -40 -30 l0 -30 -80 0 -80 0 -1 -32 c-2 -62 -3 -62 -39 -65 -29 -2
-32 -1 -17 8 10 6 25 8 33 5 8 -3 14 -1 14 4 0 6 -5 10 -11 10 -5 0 -8 4 -5 8
2 4 -28 8 -67 9 -52 0 -62 -1 -37 -6 19 -4 45 -6 58 -4 15 2 21 0 17 -7 -8
-13 -101 -5 -119 9 -6 5 -78 15 -161 22 -130 12 -143 15 -95 20 l55 6 -47 1
c-25 1 -54 5 -64 9 -11 4 -15 3 -10 -5 8 -14 -25 -32 -56 -31 -13 1 -49 -4
-81 -11 -32 -6 -68 -8 -80 -5 -15 4 -18 3 -9 -3 11 -7 8 -11 -11 -16 -14 -3
-32 -3 -40 0 -8 3 -18 1 -22 -5 -4 -7 1 -9 12 -5 16 5 16 4 1 -5 -11 -8 -25
-8 -45 -1 -26 9 -27 9 -9 -5 11 -8 15 -15 9 -15 -6 0 -27 -7 -47 -15 -20 -8
-39 -15 -42 -14 -3 0 -12 -8 -21 -18 -8 -10 -11 -11 -7 -3 4 8 -3 5 -15 -7
-24 -25 -32 -29 -29 -12 2 6 -3 14 -9 16 -7 3 -13 -2 -13 -11 0 -19 -16 -21
-23 -3 -4 9 -6 9 -6 -1 -1 -7 6 -15 14 -18 12 -5 13 -10 4 -20 -6 -8 -17 -14
-23 -14 -6 0 -4 5 4 10 10 7 11 10 2 10 -7 0 -16 -10 -21 -23 -15 -38 -33 -47
-61 -31 l-25 15 28 -4 c15 -2 25 -2 22 1 -3 3 1 13 9 21 14 15 9 17 -49 19
-60 3 -85 -8 -52 -22 6 -3 -1 -2 -18 1 -16 3 -31 10 -33 15 -2 4 -33 8 -68 8
-59 0 -64 -2 -65 -22 -1 -22 -1 -22 -9 2 -7 24 -7 23 -12 -10 l-5 -35 -1 35
c0 19 3 53 7 75 7 32 9 34 10 13 0 -16 6 -28 11 -28 12 0 12 2 0 35 -14 37
-27 23 -35 -38 -8 -60 -24 -97 -25 -57 0 35 41 171 50 165 5 -3 6 5 2 17 -4
16 -2 19 8 13 8 -5 11 -4 6 3 -19 32 205 305 236 286 7 -4 8 -3 4 4 -9 15 67
54 91 46 13 -4 14 -3 5 3 -23 17 123 84 269 123 169 45 412 61 599 38z m836
-61 c3 -23 -3 -21 -17 4 -8 17 -8 20 2 17 7 -2 13 -12 15 -21z m91 -72 c0 -8
-4 -12 -9 -9 -5 3 -6 10 -3 15 9 13 12 11 12 -6z m-396 -28 c-5 -5 -17 -4 -30
3 -30 15 -16 32 15 18 15 -7 21 -15 15 -21z m-3945 -33 c-4 -9 -9 -15 -11 -12
-3 3 -3 13 1 22 4 9 9 15 11 12 3 -3 3 -13 -1 -22z m4065 -22 c2 2 1 -1 -3 -6
-4 -5 -14 -4 -23 4 -18 15 -21 0 -3 -18 15 -15 3 -16 -24 -1 -19 10 -19 11 -1
29 15 15 20 16 34 4 9 -8 18 -13 20 -12z m-4055 -20 c-18 -16 -18 -16 -6 6 6
13 14 21 18 18 3 -4 -2 -14 -12 -24z m4102 -13 c3 -12 2 -12 -7 1 -8 12 -12
12 -29 -3 -10 -9 -22 -17 -26 -17 -5 0 2 9 15 20 26 21 41 21 47 -1z m37 -37
c1 -11 -6 -19 -17 -19 -22 -2 -24 13 -2 21 9 3 12 11 8 18 -4 7 -3 10 1 5 5
-4 9 -15 10 -25z m40 -12 c3 -6 -1 -7 -9 -4 -18 7 -21 14 -7 14 6 0 13 -4 16
-10z m39 -52 c-3 -5 -11 -4 -19 2 -8 7 -19 9 -25 5 -5 -3 -10 -2 -10 4 0 14
33 19 47 8 7 -5 10 -13 7 -19z m-4144 -4 c0 -8 -19 -13 -24 -6 -3 5 1 9 9 9 8
0 15 -2 15 -3z m7 -36 c2 -17 0 -19 -7 -8 -5 8 -6 18 -4 22 8 12 10 10 11 -14z
m72 -164 c-12 -14 -29 -10 -29 7 0 6 5 7 10 4 6 -3 10 -1 10 5 0 6 5 8 10 5 8
-5 7 -11 -1 -21z m63 -16 c12 -17 16 -28 8 -23 -8 5 -23 10 -32 10 -22 2 -34
13 -24 22 4 4 11 1 16 -7 5 -8 12 -11 16 -7 4 4 -1 17 -12 29 -10 12 -14 18
-7 14 7 -3 22 -21 35 -38z m3453 -39 c17 -12 21 -18 11 -15 -11 4 -23 1 -28
-6 -7 -13 -10 -8 -7 20 0 4 -10 10 -23 14 -20 5 -20 6 -3 7 11 0 34 -9 50 -20z
m50 11 c-3 -5 -12 -10 -18 -10 -7 0 -6 4 3 10 19 12 23 12 15 0z m-3490 -20
c10 -11 16 -20 13 -20 -3 0 -13 9 -23 20 -10 11 -16 20 -13 20 3 0 13 -9 23
-20z m951 -17 c-3 -8 -2 -12 3 -9 4 3 21 -8 36 -24 16 -17 24 -30 17 -30 -6 0
-16 8 -21 18 -9 14 -10 14 -11 2 0 -9 5 -21 12 -28 7 -7 9 -12 4 -12 -11 0
-36 27 -36 39 0 6 5 11 11 11 5 0 7 5 4 11 -5 6 -11 4 -19 -6 -10 -14 -12 -11
-14 20 -2 25 1 34 8 30 6 -4 9 -14 6 -22z m1279 -53 c-3 -5 -14 -10 -23 -10
-15 0 -15 2 -2 10 20 13 33 13 25 0z m-2161 -16 c3 -8 2 -12 -4 -9 -6 3 -10
10 -10 16 0 14 7 11 14 -7z m3498 -49 c11 -21 8 -18 -32 30 -24 29 -24 29 -2
10 13 -11 28 -29 34 -40z m-2672 -61 c19 -18 1 -18 -24 1 -10 8 -23 12 -29 8
-6 -3 -7 -1 -3 5 4 6 -8 16 -29 23 -19 7 -35 17 -35 22 0 4 -3 6 -8 4 -4 -3
-21 6 -37 20 -20 17 -1 10 60 -22 50 -26 97 -53 105 -61z m185 54 c28 -28 37
-42 21 -30 -16 12 -32 19 -35 16 -3 -4 0 -9 7 -11 6 -3 12 -9 12 -15 0 -5 -13
0 -30 12 -16 12 -30 28 -30 37 0 9 -6 13 -14 10 -10 -4 -13 -1 -9 9 4 12 8 12
21 2 13 -11 15 -10 9 5 -3 9 -5 17 -4 17 1 0 25 -23 52 -52z m892 20 c-3 -8
-6 -5 -6 6 -1 11 2 17 5 13 3 -3 4 -12 1 -19z m-1826 -5 c13 -16 12 -17 -3 -4
-10 7 -18 15 -18 17 0 8 8 3 21 -13z m1929 -13 c0 -5 -4 -10 -10 -10 -5 0 -10
5 -10 10 0 6 5 10 10 10 6 0 10 -4 10 -10z m144 0 c-5 -5 -9 -6 -34 -9 -6 0
-10 -7 -8 -13 1 -7 -17 -42 -40 -78 -23 -36 -42 -60 -42 -54 0 5 7 19 15 30 8
10 15 27 15 37 0 10 5 15 10 12 6 -4 8 8 5 31 -4 34 -3 35 9 18 8 -10 18 -16
22 -11 4 4 1 7 -6 7 -9 0 -8 5 4 19 10 11 26 19 36 18 11 -1 17 -4 14 -7z
m-1344 -4 c0 -11 -19 -15 -25 -6 -3 5 1 10 9 10 9 0 16 -2 16 -4z m2730 -27
c0 -6 -4 -7 -10 -4 -5 3 -10 11 -10 16 0 6 5 7 10 4 6 -3 10 -11 10 -16z
m-2526 -47 c4 -9 0 -12 -12 -10 -9 2 -16 10 -14 16 3 16 -20 15 -37 0 -11 -11
-12 -10 -5 2 5 8 7 24 5 34 -2 17 0 17 27 -5 17 -13 33 -30 36 -37z m-853 21
c13 -16 12 -17 -3 -4 -10 7 -18 15 -18 17 0 8 8 3 21 -13z m924 -3 c3 -5 -1
-10 -10 -10 -9 0 -13 5 -10 10 3 6 8 10 10 10 2 0 7 -4 10 -10z m772 -12 c-3
-8 -6 -5 -6 6 -1 11 2 17 5 13 3 -3 4 -12 1 -19z m-940 -4 c-3 -3 -12 -4 -19
-1 -8 3 -5 6 6 6 11 1 17 -2 13 -5z m510 -56 c-2 -13 -4 -3 -4 22 0 25 2 35 4
23 2 -13 2 -33 0 -45z m603 58 c0 -2 -7 -9 -15 -16 -13 -11 -14 -10 -9 4 5 14
24 23 24 12z m-1085 -26 c5 -8 11 -7 21 1 8 6 14 8 14 4 0 -14 -34 -33 -48
-27 -11 4 -11 6 0 14 9 7 7 8 -10 5 -12 -3 -20 -1 -16 4 7 12 31 11 39 -1z
m-700 -18 c-3 -3 -11 0 -18 7 -9 10 -8 11 6 5 10 -3 15 -9 12 -12z m753 -6
c-7 -8 -17 -12 -22 -9 -4 3 -2 9 5 14 22 13 31 11 17 -5z m629 -8 c-3 -8 -6
-5 -6 6 -1 11 2 17 5 13 3 -3 4 -12 1 -19z m-1347 -2 c0 -2 -7 -7 -16 -10 -8
-3 -12 -2 -9 4 6 10 25 14 25 6z m885 -14 c-3 -3 -11 0 -18 7 -9 10 -8 11 6 5
10 -3 15 -9 12 -12z m462 -34 c-3 -7 -5 -2 -5 12 0 14 2 19 5 13 2 -7 2 -19 0
-25z m273 -5 c0 -43 -5 -41 -13 5 -4 18 -2 32 3 32 6 0 10 -16 10 -37z m-720
17 c11 -8 7 -9 -15 -4 -37 8 -45 14 -19 14 10 0 26 -5 34 -10z m833 -35 c-3
-9 -8 -14 -10 -11 -3 3 -2 9 2 15 9 16 15 13 8 -4z m-1673 1 c0 -2 -7 -7 -16
-10 -8 -3 -12 -2 -9 4 6 10 25 14 25 6z m1507 -18 c-3 -8 -6 -5 -6 6 -1 11 2
17 5 13 3 -3 4 -12 1 -19z m30 0 c-3 -8 -6 -5 -6 6 -1 11 2 17 5 13 3 -3 4
-12 1 -19z m38 -46 c-8 -8 -25 10 -19 20 4 6 9 5 15 -3 4 -7 6 -15 4 -17z
m-38 -44 c-3 -8 -6 -5 -6 6 -1 11 2 17 5 13 3 -3 4 -12 1 -19z m37 4 c3 -5 -1
-9 -9 -9 -8 0 -12 4 -9 9 3 4 7 8 9 8 2 0 6 -4 9 -8z m34 -33 c-3 -8 -7 -3
-11 10 -4 17 -3 21 5 13 5 -5 8 -16 6 -23z m-261 -21 c-3 -8 -6 -5 -6 6 -1 11
2 17 5 13 3 -3 4 -12 1 -19z m213 -13 c0 -8 -4 -15 -10 -15 -5 0 -7 7 -4 15 4
8 8 15 10 15 2 0 4 -7 4 -15z"/>
<path d="M4687 4099 c-4 -16 -3 -18 9 -8 7 6 11 15 8 20 -8 13 -11 11 -17 -12z"/>
<path d="M990 2882 c0 -12 3 -12 17 -1 15 12 16 12 10 -3 -8 -23 0 -23 12 0 8
15 6 18 -15 18 -14 0 -24 -6 -24 -14z"/>
<path d="M1073 2805 c7 -7 14 -10 17 -6 3 3 9 9 13 12 4 4 -3 7 -17 7 -19 0
-22 -3 -13 -13z"/>
<path d="M1096 2738 c3 -5 10 -6 15 -3 13 9 11 12 -6 12 -8 0 -12 -4 -9 -9z"/>
<path d="M1130 2704 c0 -5 7 -18 15 -28 12 -16 15 -17 15 -4 0 8 -7 21 -15 28
-8 7 -15 9 -15 4z"/>
<path d="M1179 2678 c10 -26 11 -32 11 -51 0 -7 9 -13 21 -14 17 -2 18 1 8 13
-6 8 -8 18 -4 22 4 4 10 1 12 -5 3 -7 9 -13 15 -13 6 0 5 6 -2 15 -7 9 -19 14
-27 11 -8 -4 -17 4 -23 19 -5 14 -12 25 -15 25 -2 0 -1 -10 4 -22z"/>
<path d="M1454 2680 c0 -13 4 -16 10 -10 7 7 7 13 0 20 -6 6 -10 3 -10 -10z"/>
<path d="M1480 2693 c0 -6 8 -17 18 -24 16 -13 16 -13 2 6 -8 11 -16 22 -17
24 -2 2 -3 0 -3 -6z"/>
<path d="M1529 2628 c-8 -25 -3 -44 12 -44 16 0 17 2 4 16 -8 9 -12 20 -8 23
3 4 3 7 0 7 -4 0 -7 -1 -8 -2z"/>
<path d="M1330 2573 c8 -3 18 -11 22 -17 5 -7 8 -4 8 7 0 11 -7 17 -22 16 -16
0 -18 -2 -8 -6z"/>
<path d="M1280 2559 c0 -5 -5 -7 -12 -3 -29 18 5 -15 46 -44 33 -24 46 -29 46
-18 0 8 -10 18 -22 22 -27 8 -53 33 -44 41 3 3 15 -2 26 -12 11 -10 20 -15 20
-10 0 11 -32 34 -47 35 -7 0 -13 -5 -13 -11z"/>
<path d="M4723 3667 c0 -12 1 -16 4 -9 3 6 9 9 14 6 6 -3 6 -11 -2 -20 -9 -11
-8 -15 5 -20 8 -3 21 -4 28 -1 7 3 2 6 -11 6 -18 1 -21 4 -12 14 8 11 7 18 -7
30 -17 15 -18 15 -19 -6z"/>
<path d="M4803 3577 c1 -34 2 -35 19 -20 13 12 15 19 7 24 -6 3 -15 12 -19 19
-4 7 -7 -3 -7 -23z"/>
<path d="M4380 3296 c0 -2 7 -7 16 -10 8 -3 12 -2 9 4 -6 10 -25 14 -25 6z"/>
<path d="M4605 3206 l-30 -13 31 1 c17 1 31 6 31 14 0 6 -1 12 -1 12 -1 -1
-14 -7 -31 -14z"/>
<path d="M4540 3190 c20 -13 33 -13 25 0 -3 6 -14 10 -23 10 -15 0 -15 -2 -2
-10z"/>
<path d="M2421 2754 c0 -11 3 -14 6 -6 3 7 2 16 -1 19 -3 4 -6 -2 -5 -13z"/>
<path d="M2200 2675 c0 -5 5 -17 10 -25 5 -8 10 -10 10 -5 0 6 -5 17 -10 25
-5 8 -10 11 -10 5z"/>
<path d="M2190 2610 c0 -19 3 -21 12 -12 9 9 9 15 0 24 -9 9 -12 7 -12 -12z"/>
<path d="M2191 2544 c0 -11 3 -14 6 -6 3 7 2 16 -1 19 -3 4 -6 -2 -5 -13z"/>
<path d="M2211 2550 c0 -8 4 -24 9 -35 l9 -20 0 20 c0 11 -4 27 -9 35 -9 13
-10 13 -9 0z"/>
<path d="M4157 3089 c7 -7 15 -10 18 -7 3 3 -2 9 -12 12 -14 6 -15 5 -6 -5z"/>
<path d="M4250 2990 c8 -5 22 -9 30 -9 10 0 8 3 -5 9 -27 12 -43 12 -25 0z"/>
<path d="M2736 2832 c-3 -5 1 -9 9 -9 8 0 12 4 9 9 -3 4 -7 8 -9 8 -2 0 -6 -4
-9 -8z"/>
<path d="M3600 2730 c0 -5 12 -10 26 -10 14 0 23 4 19 10 -3 6 -15 10 -26 10
-10 0 -19 -4 -19 -10z"/>
<path d="M3705 2730 c-3 -5 1 -10 9 -10 8 0 18 5 21 10 3 6 -1 10 -9 10 -8 0
-18 -4 -21 -10z"/>
<path d="M3370 2690 c-12 -8 -9 -10 12 -10 15 0 30 5 33 10 8 13 -25 13 -45 0z"/>
<path d="M3440 2690 c0 -6 7 -10 15 -10 8 0 15 2 15 4 0 2 -7 6 -15 10 -8 3
-15 1 -15 -4z"/>
<path d="M3665 2690 c-13 -6 -15 -9 -5 -9 8 0 22 4 30 9 18 12 2 12 -25 0z"/>
<path d="M3740 2680 c-13 -8 -12 -10 3 -10 9 0 17 5 17 10 0 12 -1 12 -20 0z"/>
<path d="M3123 2605 c0 -7 6 -11 14 -8 7 3 13 6 13 8 0 2 -6 5 -13 8 -8 3 -14
-1 -14 -8z"/>
<path d="M2940 2570 c0 -5 5 -10 10 -10 6 0 10 5 10 10 0 6 -4 10 -10 10 -5 0
-10 -4 -10 -10z"/>
<path d="M2977 2573 c-4 -3 -7 -11 -7 -17 0 -6 5 -4 10 4 7 12 12 12 22 2 6
-6 17 -12 23 -12 5 0 1 7 -9 15 -22 17 -29 18 -39 8z"/>
<path d="M1706 2415 c4 -8 10 -15 15 -15 4 0 6 7 3 15 -4 8 -10 15 -15 15 -4
0 -6 -7 -3 -15z"/>
</g>
</svg>
